<!-- Generator: Adobe Illustrator 16.0.0, SVG Export Plug-In . SVG Version: 6.00 Build 0)  -->
<!DOCTYPE svg PUBLIC "-//W3C//DTD SVG 1.1//EN" "http://www.w3.org/Graphics/SVG/1.1/DTD/svg11.dtd">
<svg version="1.1" id="Capa_1" xmlns="http://www.w3.org/2000/svg" xmlns:xlink="http://www.w3.org/1999/xlink" x="0px" y="0px"
	 width="314.014px" height="314.013px" viewBox="0 0 314.014 314.013" style="enable-background:new 0 0 314.014 314.013;"
	 xml:space="preserve">
<g>
	<g id="_x37_3._Messages">
		<g>
			<path d="M282.611,121.828H266.91v31.492h15.701v78.374H141.306v-31.362h-31.4v31.454c0,17.341,14.061,31.402,31.4,31.402h15.701
				v31.347c0,8.672,4.216,10.082,9.413,3.138l25.876-34.492h90.315c17.345,0,31.402-14.059,31.402-31.402v-78.542
				C314.014,135.888,299.956,121.828,282.611,121.828z M251.213,153.228V43.325c0-17.342-14.062-31.395-31.401-31.395H31.402
				C14.06,11.93,0,25.982,0,43.325v109.903c0,17.349,14.06,31.402,31.402,31.402h15.699v47.104c0,8.668,4.218,10.078,9.416,3.134
				l37.68-50.237h125.615C237.151,184.63,251.213,170.577,251.213,153.228z M31.402,153.236V43.325h188.41v109.912H31.402z" fill="#ff5501"/>
		</g>
	</g>
</g>
<g>
</g>
<g>
</g>twodialogueboxessymbol_120591
<g>
</g>
<g>
</g>
<g>
</g>
<g>
</g>
<g>
</g>
<g>
</g>
<g>
</g>
<g>
</g>
<g>
</g>
<g>
</g>
<g>
</g>
<g>
</g>
<g>
</g>
</svg>
